<?xml version="1.0" encoding="UTF-8" standalone="no"?>
<!DOCTYPE svg PUBLIC "-//W3C//DTD SVG 1.1//EN" "http://www.w3.org/Graphics/SVG/1.1/DTD/svg11.dtd">
<svg xmlns="http://www.w3.org/2000/svg" version="1.1" viewBox="0.00 0.00 626.00 399.00">
<path fill="#de252e" d="
  M 336.09 123.53
  L 334.78 78.27
  A 0.90 0.90 0.0 0 1 336.22 77.53
  C 344.66 84.01 353.11 90.83 360.32 98.80
  Q 360.67 99.20 360.66 99.73
  C 360.63 101.99 361.05 104.45 361.03 106.53
  Q 360.65 142.25 360.74 178.74
  Q 360.74 179.11 359.59 179.65
  Q 359.18 179.84 358.18 179.09
  C 339.89 165.31 321.52 145.59 308.82 128.18
  C 293.14 106.67 281.25 79.56 273.69 53.04
  A 0.23 0.22 23.7 0 1 274.11 52.88
  C 287.08 77.91 303.05 98.41 325.68 117.06
  Q 331.54 121.88 335.22 124.04
  A 0.58 0.57 14.5 0 0 336.09 123.53
  Z"
/>
<path fill="#de252e" d="
  M 373.84 187.95
  C 395.49 148.07 385.77 98.65 346.88 73.47
  C 333.96 65.10 318.53 60.36 303.15 59.37
  A 0.44 0.44 0.0 0 1 303.11 58.50
  C 330.49 54.08 357.99 60.23 379.33 77.68
  C 417.55 108.94 425.51 162.37 397.53 203.26
  A 1.40 1.40 0.0 0 1 395.60 203.64
  L 374.20 189.43
  A 1.13 1.12 -58.9 0 1 373.84 187.95
  Z"
/>
<path fill="#025caa" d="
  M 279.58 216.67
  C 294.21 232.60 316.48 241.30 337.76 242.14
  A 0.24 0.24 0.0 0 1 337.80 242.62
  C 299.72 250.83 261.42 232.95 240.53 200.95
  C 220.41 170.12 221.38 131.98 241.15 101.12
  Q 242.55 98.93 243.84 97.53
  A 2.15 2.14 37.8 0 1 246.60 97.19
  L 267.54 110.83
  A 0.74 0.73 -59.1 0 1 267.78 111.80
  C 250.62 142.36 251.04 177.09 270.81 206.43
  Q 272.51 208.97 279.58 216.67
  Z"
/>
<path fill="#025caa" d="
  M 277.48 196.19
  C 276.98 170.04 277.85 143.99 277.76 117.86
  A 0.45 0.44 -70.3 0 1 278.49 117.51
  Q 286.23 123.93 293.93 130.39
  C 301.07 136.38 307.45 143.35 314.12 150.01
  C 321.90 157.78 329.74 167.17 336.22 176.13
  C 351.49 197.25 364.90 223.34 370.99 249.24
  A 0.33 0.33 0.0 0 1 370.44 249.55
  Q 369.02 248.17 367.64 245.82
  C 352.05 219.36 329.53 191.67 303.53 174.82
  A 0.87 0.87 0.0 0 0 302.19 175.58
  Q 302.89 196.63 303.04 217.75
  Q 303.05 219.46 302.67 220.74
  A 0.76 0.76 0.0 0 1 301.53 221.17
  C 295.55 217.30 277.62 203.44 277.48 196.19
  Z"
/>
<path fill="#025caa" d="
  M 278.75 272.51
  C 289.32 281.12 287.96 303.29 283.49 313.97
  C 277.83 327.47 258.99 329.26 246.01 327.72
  C 235.91 326.53 227.57 322.41 223.48 312.86
  C 217.59 299.09 218.91 276.09 235.37 269.41
  C 247.37 264.53 267.66 263.48 278.75 272.51
  Z
  M 271.9615 292.5658
  A 16.43 16.43 0.0 0 0 255.7625 275.9080
  L 252.0428 275.8561
  A 16.43 16.43 0.0 0 0 235.3850 292.0551
  L 235.2585 301.1142
  A 16.43 16.43 0.0 0 0 251.4575 317.7720
  L 255.1772 317.8239
  A 16.43 16.43 0.0 0 0 271.8350 301.6249
  L 271.9615 292.5658
  Z"
/>
<path fill="#025caa" d="
  M 440.78 314.22
  C 433.00 332.41 391.45 333.06 382.75 316.35
  Q 373.05 297.71 381.58 279.32
  C 388.64 264.12 413.29 264.30 427.00 268.04
  C 434.62 270.12 438.72 273.03 441.54 280.75
  Q 447.78 297.84 440.78 314.22
  Z
  M 392.73 302.73
  C 393.87 313.93 402.07 318.25 412.43 317.92
  C 420.87 317.65 425.95 314.23 428.26 306.00
  C 432.47 291.02 427.03 273.77 408.09 275.63
  C 393.74 277.04 391.51 290.86 392.73 302.73
  Z"
/>
<path fill="#025caa" d="
  M 141.93 282.90
  L 141.97 326.56
  A 0.84 0.84 0.0 0 1 141.13 327.40
  L 128.81 327.45
  Q 127.67 327.45 127.68 326.31
  L 127.68 267.46
  A 0.91 0.91 0.0 0 1 128.56 266.55
  Q 136.51 266.29 144.68 266.86
  C 154.45 267.55 167.54 285.20 173.31 292.94
  Q 184.70 308.23 189.69 325.53
  Q 190.18 327.19 188.44 327.20
  L 175.62 327.27
  A 1.37 1.37 0.0 0 1 174.28 326.25
  Q 166.89 298.29 142.61 282.53
  Q 141.93 282.09 141.93 282.90
  Z"
/>
<path fill="#de252e" d="
  M 161.44 267.31
  Q 161.12 267.31 161.00 267.03
  Q 160.87 266.72 161.21 266.72
  L 189.79 266.77
  Q 190.48 266.77 190.48 267.46
  Q 190.44 280.92 190.82 294.68
  Q 191.01 301.32 190.32 307.90
  A 0.10 0.10 0.0 0 1 190.13 307.92
  C 187.47 300.82 184.90 293.71 180.66 287.56
  C 175.43 279.97 169.30 272.32 161.44 267.31
  Z"
/>
<rect fill="#025caa" x="198.01" y="266.51" width="15.98" height="60.90" rx="1.62"/>
<path fill="#025caa" d="
  M 293.07 268.88
  A 2.22 2.22 0.0 0 1 295.29 266.66
  L 326.04 266.72
  A 27.64 24.11 -89.9 0 1 350.10 294.40
  L 350.09 300.10
  A 27.64 24.11 -89.9 0 1 325.94 327.70
  L 295.19 327.64
  A 2.22 2.22 0.0 0 1 292.97 325.42
  L 293.07 268.88
  Z
  M 307.03 278.28
  L 306.97 315.90
  A 1.36 1.36 0.0 0 0 308.32 317.27
  L 324.44 317.29
  A 16.74 12.40 -89.9 0 0 336.87 300.58
  L 336.89 293.72
  A 16.74 12.40 -89.9 0 0 324.52 276.95
  L 308.40 276.93
  A 1.36 1.36 0.0 0 0 307.03 278.28
  Z"
/>
<rect fill="#025caa" x="356.24" y="266.64" width="15.76" height="60.70" rx="1.40"/>
<path fill="#025caa" d="
  M 496.80 302.41
  A 0.75 0.75 0.0 0 0 496.51 303.50
  L 511.68 325.86
  A 0.83 0.83 0.0 0 1 511.00 327.15
  L 498.00 327.29
  A 2.37 2.36 -16.7 0 1 495.97 326.20
  L 475.97 294.79
  A 0.68 0.68 0.0 0 1 476.55 293.75
  C 482.82 293.84 494.93 294.51 494.55 284.58
  C 494.09 272.83 471.84 276.11 464.35 276.33
  A 1.16 1.16 0.0 0 0 463.23 277.50
  L 463.41 326.26
  Q 463.41 327.43 462.24 327.42
  L 451.41 327.33
  A 1.68 1.67 0.3 0 1 449.75 325.66
  L 449.75 267.47
  A 0.86 0.85 89.7 0 1 450.59 266.61
  Q 471.96 266.28 493.56 266.92
  C 502.98 267.19 509.86 273.73 511.09 282.86
  C 512.61 294.09 505.45 298.16 496.80 302.41
  Z"
/>
</svg>
